<?xml version="1.0" encoding="UTF-8" standalone="no"?>
<svg
   xmlns:dc="http://purl.org/dc/elements/1.1/"
   xmlns:cc="http://creativecommons.org/ns#"
   xmlns:rdf="http://www.w3.org/1999/02/22-rdf-syntax-ns#"
   xmlns:svg="http://www.w3.org/2000/svg"
   xmlns="http://www.w3.org/2000/svg"
   xmlns:sodipodi="http://sodipodi.sourceforge.net/DTD/sodipodi-0.dtd"
   xmlns:inkscape="http://www.inkscape.org/namespaces/inkscape"
   width="48"
   height="38"
   viewBox="0 0 48 38"
   fill="none"
   version="1.1"
   id="svg54"
   sodipodi:docname="logo.svg"
   inkscape:version="0.92.3 (2405546, 2018-03-11)">
  <metadata
     id="metadata60">
    <rdf:RDF>
      <cc:Work
         rdf:about="">
        <dc:format>image/svg+xml</dc:format>
        <dc:type
           rdf:resource="http://purl.org/dc/dcmitype/StillImage" />
      </cc:Work>
    </rdf:RDF>
  </metadata>
  <defs
     id="defs58" />
  <sodipodi:namedview
     pagecolor="#ffffff"
     bordercolor="#666666"
     borderopacity="1"
     objecttolerance="10"
     gridtolerance="10"
     guidetolerance="10"
     inkscape:pageopacity="0"
     inkscape:pageshadow="2"
     inkscape:window-width="1729"
     inkscape:window-height="904"
     id="namedview56"
     showgrid="false"
     inkscape:zoom="12.421053"
     inkscape:cx="28.006897"
     inkscape:cy="24.877862"
     inkscape:window-x="0"
     inkscape:window-y="0"
     inkscape:window-maximized="0"
     inkscape:current-layer="svg54" />
  <rect
     width="1353.3729"
     height="1009.6695"
     transform="translate(-18,-19)"
     id="rect4"
     clip-path="none"
     x="86.627121"
     y="14.330508"
     style="fill:#ffffff" />
  <path
     d="M15.4062 24.4688H46.6562V27.5938H15.4062V24.4688Z"
     fill="#3DC285"
     id="path8" />
  <path
     d="M24.7812 1.03125H37.2812C39.7677 1.03125 42.1522 2.01897 43.9104 3.77712C45.6685 5.53528 46.6562 7.91985 46.6562 10.4062V11.9688C46.6562 12.3832 46.4916 12.7806 46.1986 13.0736C45.9056 13.3666 45.5082 13.5312 45.0938 13.5312H16.9688C16.5543 13.5312 16.1569 13.3666 15.8639 13.0736C15.5709 12.7806 15.4062 12.3832 15.4062 11.9688V10.4062C15.4062 7.91985 16.394 5.53528 18.1521 3.77712C19.9103 2.01897 22.2948 1.03125 24.7812 1.03125Z"
     fill="#D49073"
     id="path10" />
  <path
     d="M16.9688 36.9688H45.0938C45.9567 36.9688 46.6562 36.2692 46.6562 35.4062V32.2812C46.6562 31.4183 45.9567 30.7188 45.0938 30.7188H16.9688C16.1058 30.7188 15.4062 31.4183 15.4062 32.2812V35.4062C15.4062 36.2692 16.1058 36.9688 16.9688 36.9688Z"
     fill="#D49073"
     id="path12" />
  <path
     d="M16.9688 24.4688H45.0938C45.9567 24.4688 46.6562 23.7692 46.6562 22.9062V21.3438C46.6562 20.4808 45.9567 19.7812 45.0938 19.7812H16.9688C16.1058 19.7812 15.4062 20.4808 15.4062 21.3438V22.9062C15.4062 23.7692 16.1058 24.4688 16.9688 24.4688Z"
     fill="#B37A60"
     id="path14" />
  <path
     d="M16.9688 13.5312H45.0938C45.5082 13.5312 45.9056 13.6959 46.1986 13.9889C46.4916 14.2819 46.6562 14.6793 46.6562 15.0938C46.6562 15.5082 46.4916 15.9056 46.1986 16.1986C45.9056 16.4916 45.5082 16.6562 45.0938 16.6562H16.9688C16.5543 16.6562 16.1569 16.4916 15.8639 16.1986C15.5709 15.9056 15.4062 15.5082 15.4062 15.0938C15.4062 14.6793 15.5709 14.2819 15.8639 13.9889C16.1569 13.6959 16.5543 13.5312 16.9688 13.5312Z"
     fill="#EB423F"
     id="path16" />
  <path
     d="M16.9688 27.5938H45.0938C45.5082 27.5938 45.9056 27.7584 46.1986 28.0514C46.4916 28.3444 46.6562 28.7418 46.6562 29.1562C46.6562 29.5707 46.4916 29.9681 46.1986 30.2611C45.9056 30.5541 45.5082 30.7188 45.0938 30.7188H16.9688C16.5543 30.7188 16.1569 30.5541 15.8639 30.2611C15.5709 29.9681 15.4062 29.5707 15.4062 29.1562C15.4062 28.7418 15.5709 28.3444 15.8639 28.0514C16.1569 27.7584 16.5543 27.5938 16.9688 27.5938Z"
     fill="#EBA72E"
     id="path18" />
  <path
     d="M15.4062 16.6562H46.6562V19.7812H15.4062V16.6562Z"
     fill="#FFB632"
     id="path20" />
  <path
     d="M46.6562 19.7812H34.1562L40.4062 24.4688L46.6562 19.7812Z"
     fill="#FFB632"
     id="path22" />
  <path
     d="M1.34375 8.84375H6.03125V18.2188H1.34375V8.84375Z"
     fill="#EBA72E"
     id="path24" />
  <path
     d="M6.03125 4.15625H10.7188V18.2188H6.03125V4.15625Z"
     fill="#FFB632"
     id="path26" />
  <path
     d="M15.4062 4.15625H20.0938V18.2188H15.4062V4.15625Z"
     fill="#FFB632"
     id="path28" />
  <path
     d="M10.7188 8.84375H15.4062V18.2188H10.7188V8.84375Z"
     fill="#EBA72E"
     id="path30" />
  <path
     d="M20.0938 8.84375H24.7812V18.2188H20.0938V8.84375Z"
     fill="#EBA72E"
     id="path32" />
  <path
     d="M22.4375 36.9688H3.6875L1.34375 18.2188H24.7812L22.4375 36.9688Z"
     fill="#ED6F6D"
     id="path34" />
  <path
     d="M17.75 18.2188C17.75 19.462 17.2561 20.6542 16.3771 21.5333C15.498 22.4124 14.3057 22.9062 13.0625 22.9062C11.8193 22.9062 10.627 22.4124 9.74794 21.5333C8.86886 20.6542 8.375 19.462 8.375 18.2188H17.75Z"
     fill="#EB423F"
     id="path36" />
  <path
     d="M24 36.9688C27.4518 36.9688 30.25 34.1705 30.25 30.7188C30.25 27.267 27.4518 24.4688 24 24.4688C20.5482 24.4688 17.75 27.267 17.75 30.7188C17.75 34.1705 20.5482 36.9688 24 36.9688Z"
     fill="#EB423F"
     id="path38" />
  <path
     d="M37.2813 0.25H24.7813C23.4125 0.25111 22.0581 0.528453 20.799 1.06542C19.54 1.60239 18.4023 2.38793 17.4541 3.375H15.4063C15.1991 3.375 15.0003 3.45731 14.8538 3.60382C14.7073 3.75034 14.625 3.94905 14.625 4.15625V8.0625H11.5V4.15625C11.5 3.94905 11.4177 3.75034 11.2712 3.60382C11.1247 3.45731 10.926 3.375 10.7188 3.375H6.03125C5.82405 3.375 5.62534 3.45731 5.47882 3.60382C5.33231 3.75034 5.25 3.94905 5.25 4.15625V8.0625H1.34375C1.13655 8.0625 0.937836 8.14481 0.791323 8.29132C0.64481 8.43783 0.5625 8.63655 0.5625 8.84375V18.2188H0.563086C0.562882 18.2511 0.564675 18.2835 0.568457 18.3156L2.91221 37.0656C2.93582 37.2546 3.02764 37.4284 3.17041 37.5545C3.31318 37.6805 3.49706 37.75 3.6875 37.75H45.0938C45.7151 37.7493 46.3109 37.5021 46.7502 37.0627C47.1896 36.6233 47.4368 36.0276 47.4375 35.4062V32.2812C47.4379 31.705 47.2251 31.149 46.8401 30.7203C47.1487 30.3755 47.3484 29.9471 47.4139 29.4891C47.4795 29.0311 47.4079 28.5639 47.2084 28.1464C47.2811 28.0739 47.3388 27.9878 47.3781 27.8929C47.4174 27.7981 47.4376 27.6964 47.4375 27.5938V24.4688C47.4376 24.3661 47.4174 24.2644 47.3781 24.1696C47.3388 24.0747 47.2811 23.9886 47.2084 23.9161C47.3596 23.601 47.4379 23.2558 47.4375 22.9062V21.3438C47.4372 20.9944 47.3588 20.6495 47.208 20.3343C47.2808 20.2618 47.3386 20.1756 47.378 20.0807C47.4174 19.9858 47.4376 19.884 47.4375 19.7812V16.6562C47.4376 16.5539 47.4176 16.4524 47.3784 16.3578C47.3393 16.2632 47.2819 16.1772 47.2095 16.1048C47.4085 15.6871 47.4794 15.2198 47.4134 14.7619C47.3473 14.3039 47.1473 13.8757 46.8384 13.5312C47.2244 13.1024 47.4378 12.5457 47.4375 11.9688V10.4062C47.4345 7.71358 46.3634 5.13207 44.4594 3.22807C42.5554 1.32406 39.9739 0.25305 37.2813 0.25ZM19.3125 4.9375V17.4375H16.1875V4.9375H19.3125ZM20.875 9.625H24V17.4375H20.875V9.625ZM25.5625 14.3125H45.0938C45.301 14.3125 45.4997 14.3948 45.6462 14.5413C45.7927 14.6878 45.875 14.8865 45.875 15.0938C45.875 15.301 45.7927 15.4997 45.6462 15.6462C45.4997 15.7927 45.301 15.875 45.0938 15.875H25.5625V14.3125ZM30.987 29.9375C30.9277 29.4048 30.8078 28.8805 30.6296 28.375H45.0938C45.301 28.375 45.4997 28.4573 45.6462 28.6038C45.7927 28.7503 45.875 28.949 45.875 29.1562C45.875 29.3635 45.7927 29.5622 45.6462 29.7087C45.4997 29.8552 45.301 29.9375 45.0938 29.9375H30.987ZM24 36.1875C22.9179 36.1879 21.8599 35.8673 20.96 35.2663C20.0601 34.6653 19.3586 33.811 18.9443 32.8113C18.53 31.8116 18.4215 30.7115 18.6326 29.6501C18.8436 28.5887 19.3647 27.6138 20.1298 26.8486C20.895 26.0834 21.87 25.5623 22.9313 25.3513C23.9927 25.1403 25.0928 25.2488 26.0925 25.6631C27.0922 26.0774 27.9466 26.7788 28.5476 27.6787C29.1485 28.5787 29.4691 29.6366 29.4688 30.7188C29.4671 32.1687 28.8904 33.5587 27.8652 34.5839C26.84 35.6092 25.4499 36.1859 24 36.1875ZM25.2756 20.5625H33.8958L38.0625 23.6875H24.885L25.2756 20.5625ZM42.9788 26.5837C43.0537 26.6586 43.1303 26.7352 43.2092 26.8125H37.6035C37.6825 26.7352 37.7592 26.6585 37.8341 26.5835C38.5788 25.8385 39.1674 25.25 40.4063 25.25C41.6451 25.25 42.2337 25.8385 42.9788 26.5837ZM29.8472 26.8125C29.466 26.2437 29.0037 25.7338 28.4749 25.2988C29.344 25.4527 29.8573 25.9629 30.4778 26.5838C30.5527 26.6587 30.6293 26.7353 30.7082 26.8126L29.8472 26.8125ZM31.5827 25.4788C31.5079 25.4039 31.4313 25.3273 31.3524 25.25H36.959C36.8802 25.3272 36.8036 25.4038 36.7288 25.4786C35.9836 26.2239 35.3948 26.8125 34.1553 26.8125C32.9157 26.8125 32.3278 26.224 31.5827 25.4788ZM36.5 20.5625H44.3125L40.4063 23.4922L36.5 20.5625ZM45.875 26.7181C45.1305 26.5237 44.6523 26.0474 44.0837 25.4788C44.0088 25.4039 43.9322 25.3273 43.8533 25.25H45.0938C45.3599 25.2501 45.6242 25.2047 45.875 25.1156V26.7181ZM45.0938 23.6875H42.75L45.875 21.3438V22.9062C45.8748 23.1134 45.7924 23.312 45.6459 23.4584C45.4995 23.6049 45.3009 23.6873 45.0938 23.6875ZM45.875 17.4375V19H25.4709L25.5564 18.3156C25.5603 18.2835 25.5621 18.2511 25.5619 18.2188H25.5625V17.4375H45.875ZM16.8906 19C16.7108 19.8825 16.2316 20.6758 15.5341 21.2455C14.8366 21.8153 13.9636 22.1265 13.063 22.1265C12.1624 22.1265 11.2894 21.8153 10.5919 21.2455C9.89434 20.6758 9.41513 19.8825 9.23535 19H16.8906ZM14.625 9.625V17.4375H11.5V9.625H14.625ZM9.9375 4.9375V17.4375H6.8125V4.9375H9.9375ZM5.25 9.625V17.4375H2.125V9.625H5.25ZM4.37715 36.1875L2.22871 19H7.65049C7.83814 20.3016 8.48856 21.4919 9.48254 22.3528C10.4765 23.2138 11.7475 23.6877 13.0625 23.6877C14.3775 23.6877 15.6485 23.2138 16.6425 22.3528C17.6364 21.4919 18.2869 20.3016 18.4745 19H23.8963L23.306 23.7222C21.9175 23.8591 20.6013 24.4063 19.525 25.2939C18.4486 26.1816 17.6608 27.3696 17.262 28.7065C16.8632 30.0434 16.8714 31.4688 17.2855 32.8011C17.6996 34.1334 18.5009 35.3122 19.5874 36.1875H4.37715ZM45.875 35.4062C45.8748 35.6134 45.7924 35.812 45.6459 35.9584C45.4995 36.1049 45.3009 36.1873 45.0938 36.1875H28.4126C29.8549 35.0253 30.7801 33.3407 30.9868 31.5H45.0938C45.3009 31.5002 45.4995 31.5826 45.6459 31.7291C45.7924 31.8755 45.8748 32.0741 45.875 32.2812V35.4062ZM45.875 11.9688C45.8748 12.1759 45.7924 12.3745 45.6459 12.5209C45.4995 12.6674 45.3009 12.7498 45.0938 12.75H25.5625V8.84375C25.5625 8.63655 25.4802 8.43783 25.3337 8.29132C25.1872 8.14481 24.9885 8.0625 24.7813 8.0625H20.875V4.15625C20.875 3.94905 20.7927 3.75034 20.6462 3.60382C20.4997 3.45731 20.301 3.375 20.0938 3.375H19.8435C21.2898 2.35936 23.0139 1.81381 24.7813 1.8125H37.2813C39.5597 1.81508 41.744 2.72132 43.3551 4.33241C44.9662 5.94349 45.8724 8.12784 45.875 10.4062V11.9688Z"
     fill="black"
     id="path40" />
  <path
     d="M24 3.375H25.5625V4.9375H24V3.375Z"
     fill="black"
     id="path42" />
  <path
     d="M27.125 4.9375H28.6875V6.5H27.125V4.9375Z"
     fill="black"
     id="path44" />
  <path
     d="M30.25 3.375H31.8125V4.9375H30.25V3.375Z"
     fill="black"
     id="path46" />
  <path
     d="M33.375 4.9375H34.9375V6.5H33.375V4.9375Z"
     fill="black"
     id="path48" />
  <path
     d="M36.5 3.375H38.0625V4.9375H36.5V3.375Z"
     fill="black"
     id="path50" />
  <path
     d="M26.8962 27.8226C26.8237 27.75 26.7375 27.6925 26.6428 27.6532C26.548 27.6139 26.4464 27.5937 26.3438 27.5937C26.2412 27.5937 26.1396 27.6139 26.0448 27.6532C25.95 27.6925 25.8639 27.75 25.7913 27.8226L24 29.6139L22.2087 27.8226C22.0622 27.676 21.8635 27.5937 21.6563 27.5937C21.4491 27.5937 21.2503 27.676 21.1038 27.8226C20.9573 27.9691 20.875 28.1678 20.875 28.375C20.875 28.5822 20.9573 28.7809 21.1038 28.9274L22.8951 30.7188L21.1038 32.5101C20.9573 32.6566 20.875 32.8553 20.875 33.0625C20.875 33.2697 20.9573 33.4684 21.1038 33.6149C21.2503 33.7615 21.4491 33.8438 21.6563 33.8438C21.8635 33.8438 22.0622 33.7615 22.2087 33.6149L24 31.8236L25.7913 33.6149C25.9379 33.7615 26.1366 33.8438 26.3438 33.8438C26.551 33.8438 26.7497 33.7615 26.8962 33.6149C27.0427 33.4684 27.1251 33.2697 27.1251 33.0625C27.1251 32.8553 27.0427 32.6566 26.8962 32.5101L25.1049 30.7188L26.8962 28.9274C26.9688 28.8549 27.0263 28.7688 27.0656 28.674C27.1049 28.5792 27.1251 28.4776 27.1251 28.375C27.1251 28.2724 27.1049 28.1708 27.0656 28.076C27.0263 27.9812 26.9688 27.8951 26.8962 27.8226Z"
     fill="black"
     id="path52" />
</svg>
